#!OML:ASF I:\Actors\actors\Patient Classification 1\Patient 1\Session 1\Subject1.ASF
:FULLY-SPECIFIED
:DEGREES
689
root -0.988225 17.7304 6.623 31.7263 4.89495 -15.4513
lowerback 26.8607 -1.26116 -2.08371
upperback 4.36517 -2.75872 -4.89272
thorax -10.1952 -1.29762 -3.34656
lowerneck -17.6002 8.56006 9.83732
upperneck 5.94246 10.0491 -7.16661
head 5.46427 4.69658 -2.79003
rclavicle 6.36111e-015 -1.27222e-014
rhumerus 57.9532 62.3598 -37.4944
rradius 60.2575
rwrist -49.4479
rhand 2.84074 -68.0325
rfingers 7.12502
rthumb 28.3084 -264.087
lclavicle 6.36111e-015 -1.27222e-014
lhumerus 75.972 51.7984 154.212
lradius 11.6089
lwrist -12.9715
lhand -31.6582 7.11395
lfingers 7.12502
lthumb -4.91871 37.0369
rfemur -34.18 22.1167 24.9922
rtibia 0.494346
rfoot -4.13772 -20.0871
rtoes 5.88854
lfemur -42.974 -53.4285 42.2732
ltibia -4.89316
lfoot -70.8596 58.4503
ltoes 40.7599
690
root -0.976404 17.7187 6.6132 32.8268 5.10091 -15.5313
lowerback 26.754 -1.26833 -2.09791
upperback 4.2352 -2.7724 -4.87818
thorax -10.2875 -1.30335 -3.31895
lowerneck -17.5497 8.57287 10.1836
upperneck 5.7073 10.0503 -7.75428
head 5.43444 4.66739 -3.03263
rclavicle -7.95139e-014 -6.04305e-014
rhumerus 59.2579 61.6286 -36.5177
rradius 60.7484
rwrist -48.5135
rhand 3.0917 -67.5702
rfingers 7.12502
rthumb 28.5482 -264.589
lclavicle -7.95139e-014 -6.04305e-014
lhumerus 64.202 48.1435 139.321
lradius 12.6484
lwrist -3.36505
lhand -28.3239 6.31313
lfingers 7.12502
lthumb -1.69874 36.2861
rfemur -35.3681 21.9215 24.7154
rtibia 0.218169
rfoot -3.84488 -19.957
rtoes 5.66689
lfemur -43.8636 -52.4429 43.3176
ltibia -5.19864
lfoot -71.6132 56.9678
ltoes 42.5498
691
root -0.983739 17.7103 6.6211 33.6111 5.26326 -15.4762
lowerback 26.5909 -1.15107 -2.49065
upperback 4.24578 -2.72384 -4.90629
thorax -10.1717 -1.26689 -3.14127
lowerneck -17.2899 8.48008 10.4138
upperneck 5.32036 9.89936 -7.89689
head 5.27804 4.59813 -3.14429
rclavicle 6.36111e-015 2.06736e-014
rhumerus 59.2709 60.9439 -36.6887
rradius 61.065
rwrist -47.6649
rhand 3.07461 -67.0106
rfingers 7.12502
rthumb 28.5318 -265.146
lclavicle 6.36111e-015 2.06736e-014
lhumerus 59.9204 45.2145 133.509
lradius 13.1258
lwrist -0.737066
lhand -25.8105 5.34977
lfingers 7.12502
lthumb 0.72874 35.3283
rfemur -36.0383 21.8097 24.6097
rtibia -0.085048
rfoot -3.6858 -19.8755
rtoes 5.58035
lfemur -44.1306 -51.8893 43.8388
ltibia -5.72969
lfoot -72.3487 55.4388
ltoes 44.2826
692
root -0.981158 17.7045 6.62383 34.1389 5.53228 -15.4128
lowerback 26.5765 -1.16634 -2.57308
upperback 4.35191 -2.76577 -4.98949
thorax -10.046 -1.28422 -3.17239
lowerneck -17.3329 8.35271 10.4536
upperneck 5.27068 9.70198 -7.79173
head 5.24717 4.50932 -3.14034
rclavicle -2.54444e-014 -6.52014e-014
rhumerus 59.3966 60.2594 -36.6974
rradius 61.1776
rwrist -47.2828
rhand 2.85452 -66.8297
rfingers 7.12502
rthumb 28.3215 -265.292
lclavicle -2.54444e-014 -6.52014e-014
lhumerus 62.4896 44.9218 136.527
lradius 12.7504
lwrist -3.66574
lhand -26.2967 5.7507
lfingers 7.12502
lthumb 0.259199 35.7303
rfemur -36.5085 21.5406 24.6021
rtibia -0.269836
rfoot -3.58726 -19.8038
rtoes 5.65868
lfemur -44.6914 -51.5195 44.5007
ltibia -5.98774
lfoot -72.6521 54.6577
ltoes 45.1303
693
root -0.967387 17.7056 6.6241 34.2597 5.80934 -15.3332
lowerback 26.9862 -1.25599 -2.46804
upperback 4.53183 -2.87416 -5.12083
thorax -10.07 -1.33787 -3.34118
lowerneck -17.559 8.30379 10.6172
upperneck 5.45486 9.59465 -7.88045
head 5.34377 4.44889 -3.19719
rclavicle -6.99722e-014 -1.43125e-014
rhumerus 59.7433 59.5713 -36.4031
rradius 61.1511
rwrist -47.3934
rhand 2.68889 -66.8771
rfingers 7.12502
rthumb 28.1632 -265.218
lclavicle -6.99722e-014 -1.43125e-014
lhumerus 65.4234 44.9491 140.145
lradius 12.5957
lwrist -5.06076
lhand -26.9349 5.51611
lfingers 7.12502
lthumb -0.357214 35.4956
rfemur -36.526 21.1598 24.6722
rtibia -0.469762
rfoot -3.47801 -19.7283
rtoes 5.89739
lfemur -45.2477 -51.5349 44.9646
ltibia -5.95023
lfoot -72.5839 54.6442
ltoes 45.153
694
root -0.948947 17.7127 6.62579 34.0419 5.96205 -15.2623
lowerback 27.7983 -1.31932 -2.4503
upperback 4.66536 -2.99378 -5.21746
thorax -10.3465 -1.39108 -3.41503
lowerneck -17.6006 8.33838 10.7177
upperneck 5.65651 9.63834 -8.01393
head 5.43058 4.46165 -3.24569
rclavicle 3.81667e-014 7.79236e-014
rhumerus 60.0766 59.1344 -35.8215
rradius 61.2656
rwrist -47.5803
rhand 2.79108 -66.958
rfingers 7.12502
rthumb 28.2609 -265.154
lclavicle 3.81667e-014 7.79236e-014
lhumerus 63.9506 43.9151 138.099
lradius 13.1759
lwrist -1.70591
lhand -27.9341 5.80219
lfingers 7.12502
lthumb -1.32225 35.7778
rfemur -36.1526 20.8221 24.7677
rtibia -0.657345
rfoot -3.43353 -19.6128
rtoes 6.08473
lfemur -45.4496 -51.8991 44.9946
ltibia -5.79428
lfoot -72.4631 54.8877
ltoes 44.9531
695
root -0.936138 17.7144 6.62722 33.9707 6.09538 -15.2432
lowerback 28.3139 -1.35843 -2.43237
upperback 4.70122 -3.06904 -5.27303
thorax -10.5766 -1.42455 -3.45968
lowerneck -17.5533 8.38693 10.8141
upperneck 5.94712 9.7176 -8.16717
head 5.53627 4.49155 -3.29701
rclavicle -2.22639e-014 1.59028e-015
rhumerus 60.1298 58.9958 -35.0867
rradius 61.8053
rwrist -47.4876
rhand 2.99202 -66.9332
rfingers 7.12502
rthumb 28.4529 -265.21
lclavicle -2.22639e-014 1.59028e-015
lhumerus 59.3008 41.7565 131.903
lradius 14.1553
lwrist 3.86887
lhand -28.5445 6.26087
lfingers 7.12502
lthumb -1.91183 36.2321
rfemur -36.0167 20.5614 24.8581
rtibia -0.70256
rfoot -3.45445 -19.476
rtoes 6.03065
lfemur -45.6135 -52.0786 45.1089
ltibia -5.76277
lfoot -72.4853 55.0142
ltoes 44.936
696
root -0.929403 17.7118 6.62962 34.0875 6.21171 -15.2638
lowerback 28.383 -1.33748 -2.39509
upperback 4.75201 -3.03772 -5.32588
thorax -10.5571 -1.41217 -3.55263
lowerneck -17.5227 8.39836 11.0587
upperneck 6.14885 9.72792 -8.49019
head 5.62736 4.47957 -3.43448
rclavicle -2.8625e-014 -6.20208e-014
rhumerus 59.5733 58.8496 -34.6187
rradius 62.9257
rwrist -47.574
rhand 3.10332 -66.8357
rfingers 7.12502
rthumb 28.5593 -265.326
lclavicle -2.8625e-014 -6.20208e-014
lhumerus 53.3908 38.2082 123.867
lradius 15.3793
lwrist 10.457
lhand -28.6733 6.63838
lfingers 7.12502
lthumb -2.03621 36.6084
rfemur -36.1591 20.3805 24.9312
rtibia -0.645579
rfoot -3.47713 -19.3621
rtoes 6.00336
lfemur -45.7681 -52.0203 45.3439
ltibia -5.88229
lfoot -72.5665 54.9818
ltoes 45.119
697
root -0.924498 17.7108 6.63513 34.1659 6.2978 -15.2907
lowerback 28.3703 -1.27985 -2.37515
upperback 4.83633 -2.95607 -5.36013
thorax -10.4524 -1.376 -3.63242
lowerneck -17.5 8.42847 11.3322
upperneck 6.21722 9.7554 -8.85409
head 5.683 4.47452 -3.58908
rclavicle -4.77083e-014 -3.18055e-014
rhumerus 58.3694 58.6371 -34.6663
rradius 64.3951
rwrist -47.8796
rhand 3.2697 -66.7405
rfingers 7.12502
rthumb 28.7182 -265.448
lclavicle -4.77083e-014 -3.18055e-014
lhumerus 47.9114 33.8747 116.235
lradius 16.9276
lwrist 17.3097
lhand -28.5936 7.05524
lfingers 7.12502
lthumb -1.95922 37.026
rfemur -36.2321 20.2565 25.0438
rtibia -0.61092
rfoot -3.48734 -19.2823
rtoes 5.94307
lfemur -45.9162 -51.9601 45.5435
ltibia -5.92457
lfoot -72.5177 55.107
ltoes 45.0331
698
root -0.919434 17.71 6.64317 34.2114 6.37274 -15.353
lowerback 28.3547 -1.27121 -2.33424
upperback 4.87866 -2.93043 -5.36992
thorax -10.3971 -1.36581 -3.67621
lowerneck -17.5304 8.46938 11.324
upperneck 6.35694 9.83144 -8.9797
head 5.74705 4.50071 -3.61602
rclavicle 0 3.81667e-014
rhumerus 57.0606 58.5742 -34.8322
rradius 65.9338
rwrist -47.918
rhand 3.44756 -66.6716
rfingers 7.12502
rthumb 28.8881 -265.545
lclavicle 0 3.81667e-014
lhumerus 43.8225 30.152 110.553
lradius 18.6279
lwrist 23.1372
lhand -28.5086 7.40243
lfingers 7.12502
lthumb -1.87717 37.3739
rfemur -36.2308 20.1852 25.2221
rtibia -0.600577
rfoot -3.47789 -19.2148
rtoes 5.53292
lfemur -46.0585 -51.9076 45.7309
ltibia -5.8757
lfoot -72.3665 55.4331
ltoes 44.6463
699
root -0.913885 17.7097 6.65335 34.2033 6.40702 -15.3753
lowerback 28.3382 -1.30085 -2.34016
upperback 4.91943 -2.96807 -5.39056
thorax -10.3449 -1.38303 -3.68209
lowerneck -17.688 8.522 11.1276
upperneck 6.55763 9.93669 -8.94312
head 5.83459 4.54371 -3.55409
rclavicle 4.45278e-014 1.59028e-014
rhumerus 55.9274 58.6282 -34.819
rradius 67.4662
rwrist -47.7495
rhand 3.69539 -66.8093
rfingers 7.12502
rthumb 29.1248 -265.448
lclavicle 4.45278e-014 1.59028e-014
lhumerus 40.9386 27.6049 106.789
lradius 20.2871
lwrist 27.6103
lhand -28.3438 7.59874
lfingers 7.12502
lthumb -1.71792 37.5716
rfemur -36.145 20.105 25.3497
rtibia -0.611447
rfoot -3.49494 -19.1467
rtoes 4.9564
lfemur -46.1072 -51.9334 45.7846
ltibia -5.8467
lfoot -72.2413 55.7362
ltoes 44.332
700
root -0.90997 17.711 6.66483 34.1355 6.43245 -15.2563
lowerback 28.3469 -1.29465 -2.44506
upperback 4.97187 -2.99343 -5.44871
thorax -10.2886 -1.39154 -3.67791
lowerneck -17.819 8.55166 10.9961
upperneck 6.69639 9.9946 -8.89294
head 5.89572 4.56744 -3.50516
rclavicle -6.36111e-015 2.54444e-014
rhumerus 54.4603 58.6682 -35.0213
rradius 68.9187
rwrist -47.4992
rhand 4.19267 -67.0157
rfingers 7.12502
rthumb 29.5996 -265.325
lclavicle -6.36111e-015 2.54444e-014
lhumerus 38.3241 25.4618 103.841
lradius 22.1728
lwrist 31.7718
lhand -28.3306 8.01952
lfingers 7.12502
lthumb -1.70519 37.9925
rfemur -35.9559 19.9279 25.3588
rtibia -0.669503
rfoot -3.5795 -19.0842
rtoes 4.6098
lfemur -46.1979 -52.081 45.7292
ltibia -5.81984
lfoot -72.204 55.9478
ltoes 44.1573
701
root -0.907427 17.7144 6.67601 34.0486 6.49015 -15.0843
lowerback 28.425 -1.2694 -2.58113
upperback 4.97372 -3.0131 -5.52426
thorax -10.3248 -1.39648 -3.67838
lowerneck -17.7866 8.5886 11.077
upperneck 6.75493 10.037 -8.93118
head 5.91969 4.58789 -3.52461
rclavicle 6.04305e-014 5.24792e-014
rhumerus 52.7048 58.7642 -35.4691
rradius 70.249
rwrist -47.3648
rhand 4.97732 -67.0545
rfingers 7.12502
rthumb 30.3483 -265.422
lclavicle 6.04305e-014 5.24792e-014
lhumerus 35.4931 23.2512 101.055
lradius 24.5864
lwrist 36.2638
lhand -28.0533 8.68406
lfingers 7.12502
lthumb -1.4374 38.659
rfemur -35.732 19.6992 25.3556
rtibia -0.738438
rfoot -3.73231 -19.016
rtoes 4.5907
lfemur -46.3684 -52.2777 45.6965
ltibia -5.77302
lfoot -72.1368 56.1784
ltoes 43.9139
